<svg width="19" height="17" viewBox="0 0 19 17" fill="none" xmlns="http://www.w3.org/2000/svg">
<path d="M9.00011 0.015625C7.53656 0.015625 6.35011 1.20207 6.35011 2.66563C6.35011 3.02461 6.64113 3.31563 7.00011 3.31563C7.3591 3.31563 7.65011 3.02461 7.65011 2.66563C7.65011 1.92004 8.25453 1.31563 9.00011 1.31563H11.0001C11.7457 1.31563 12.3501 1.92004 12.3501 2.66563C12.3501 3.02461 12.6411 3.31563 13.0001 3.31563C13.3591 3.31563 13.6501 3.02461 13.6501 2.66563C13.6501 1.20207 12.4637 0.015625 11.0001 0.015625H9.00011Z" fill="#626F84"/>
<path d="M0.995361 7.46684C0.995361 5.80684 2.33536 4.46684 3.99536 4.46684L15.9993 4.46683C17.6493 4.46683 18.9993 5.80683 18.9993 7.46683L18.9991 9.037C18.9991 9.56966 18.7823 10.0794 18.3986 10.4489C18.0334 10.8006 17.5461 10.9971 17.039 10.9971H2.96832C2.45749 10.9971 1.96656 10.799 1.59877 10.4445C1.2235 10.0828 1.007 9.58774 0.995361 9.06785V7.46684Z" fill="#626F84"/>
<path d="M17.6757 12.2911C18.2526 12.2679 18.9993 12.726 18.9993 13.3033V13.9989C18.9993 15.6589 17.6593 16.9989 15.9993 16.9989H3.99536C2.33536 16.9989 0.995361 15.6589 0.995361 13.9989V13.3003C0.995361 12.7224 1.74333 12.2654 2.32073 12.2902C2.49707 12.2978 2.67699 12.2975 2.85878 12.2972L2.96832 12.2971H5.35011V13.9093C5.35011 14.2683 5.64113 14.5593 6.00011 14.5593C6.3591 14.5593 6.65011 14.2683 6.65011 13.9093V12.2971H13.3501V13.9077C13.3501 14.2667 13.6411 14.5577 14.0001 14.5577C14.3591 14.5577 14.6501 14.2667 14.6501 13.9077V12.2971H17.039L17.1577 12.2972C17.3326 12.2976 17.5058 12.298 17.6757 12.2911Z" fill="#626F84"/>
</svg>
